<svg data-v-0dd9719b="" version="1.0" xmlns="http://www.w3.org/2000/svg" xmlns:xlink="http://www.w3.org/1999/xlink" width="262.1" height="60" preserveAspectRatio="xMidYMid meet" color-interpolation-filters="sRGB"
style="margin: auto;">
    <rect data-v-0dd9719b="" x="0" y="0" width="100%" height="100%" fill="#feffff" fill-opacity="1" class="background"></rect>
    <g transform="translate(10,10)">
        <g>
            <g class="tp-name">
                <g transform="scale(1)">
                    <g transform="translate(0, 0)">
                        <g class="name-imagesvg">
                            <g>
                                <rect fill="#333" fill-opacity="0" stroke-width="2" x="0" y="0" width="32.89276803520559" height="40" class="image-rect"></rect>
                                <svg x="0" y="0" width="32.89276803520559" height="40" filtersec="colorsb279880539" class="image-svg-svg primary" style="overflow: visible;">
                                    <svg xmlns="http://www.w3.org/2000/svg" viewBox="0 0 126.3 153.59">
                                        <defs>
                                            <filter id="a49114584-3ad1-42dc-b595-42bf1c625f43" x="6.07" y="6.07" width="120.23" height="147.52" filterUnits="userSpaceOnUse" color-interpolation-filters="sRGB">
                                                <feFlood flood-color="#fff" result="bg"></feFlood>
                                                <feBlend in="SourceGraphic" in2="bg"></feBlend>
                                            </filter>
                                            <mask id="ba5c7dec3-8897-4699-a75e-a2c63d23b8ee" x="6.07" y="6.07" width="120.23" height="147.52" maskUnits="userSpaceOnUse">
                                                <path d="M72.86 6.07H41.47L6.07 135.58h31.39l3.88-14.15H73l3.87 14.15h31.39zM49.1 93.1l8.08-29.61 8.09 29.61z" filter="url(#a49114584-3ad1-42dc-b595-42bf1c625f43)" fill="#000000"></path>
                                            </mask>
                                        </defs>
                                        <g mask="url(#ba5c7dec3-8897-4699-a75e-a2c63d23b8ee)">
                                            <path fill="#ff5e5e" d="M57.18 63.49L49.1 93.1l18.01 18.01 8.08-29.61-18.01-18.01z"></path>
                                            <path fill="#fb0" d="M73.03 121.43H41.34l-3.88 14.15H6.07l18.01 18.01h31.39l3.88-14.15h31.69l-18.01-18.01z"></path>
                                            <path fill="#4ce0c3" d="M90.87 24.08L72.86 6.07l35.43 129.51H76.91l18.01 18.01h31.38L90.87 24.08z"></path>
                                        </g>
                                        <path d="M66.79 0H35.4L0 129.51h31.39l3.88-14.15H67l3.88 14.15h31.39zM43 87l8.08-29.61L59.2 87z" fill="#333"></path>
                                    </svg>
                                </svg>
                                <!---->
                            </g>
                        </g>
                    </g>
                    <g transform="translate(32.89276803520559, 0)">
                        <g class="name-imagesvg">
                            <g>
                                <rect fill="#333" fill-opacity="0" stroke-width="2" x="0" y="0" width="14.175402461871903" height="40" class="image-rect"></rect>
                                <svg x="0" y="0" width="14.175402461871903" height="40" filtersec="colorsb8312547401" class="image-svg-svg primary" style="overflow: visible;">
                                    <svg xmlns="http://www.w3.org/2000/svg" viewBox="0 0 54.43 153.59">
                                        <defs>
                                            <filter id="a84acf6c0-af93-48af-a5d0-362fcbf19d40" x="6.07" y="6.07" width="48.36" height="147.52" filterUnits="userSpaceOnUse" color-interpolation-filters="sRGB">
                                                <feFlood flood-color="#fff" result="bg"></feFlood>
                                                <feBlend in="SourceGraphic" in2="bg"></feBlend>
                                            </filter>
                                            <mask id="b97307063-afae-46a5-af31-54159cabe85b" x="6.07" y="6.07" width="48.36" height="147.52" maskUnits="userSpaceOnUse">
                                                <path filter="url(#a84acf6c0-af93-48af-a5d0-362fcbf19d40)" d="M6.07 6.07h30.35v129.51H6.07z" fill="#000000"></path>
                                            </mask>
                                        </defs>
                                        <title>资源 35</title>
                                        <g mask="url(#b97307063-afae-46a5-af31-54159cabe85b)">
                                            <path fill="#bc47ff" d="M36.42 6.07v129.51H6.07l18.01 18.01h30.35V24.08L36.42 6.07z"></path>
                                        </g>
                                        <path fill="#333" d="M0 0h30.35v129.51H0z"></path>
                                    </svg>
                                </svg>
                                <!---->
                            </g>
                        </g>
                    </g>
                    <g transform="translate(47.068170497077496, 0)">
                        <g class="name-imagesvg">
                            <g>
                                <rect fill="#333" fill-opacity="0" stroke-width="2" x="0" y="0" width="30.23373894286662" height="40" class="image-rect"></rect>
                                <svg x="0" y="0" width="30.23373894286662" height="40" filtersec="colorsb11039944" class="image-svg-svg primary" style="overflow: visible;">
                                    <svg xmlns="http://www.w3.org/2000/svg" viewBox="0 0 116.09 153.59">
                                        <defs>
                                            <filter id="ac72cf1c6-a6de-491d-986a-d0d5a99617bd" x="6.07" y="6.07" width="110.02" height="147.52" filterUnits="userSpaceOnUse" color-interpolation-filters="sRGB">
                                                <feFlood flood-color="#fff" result="bg"></feFlood>
                                                <feBlend in="SourceGraphic" in2="bg"></feBlend>
                                            </filter>
                                            <mask id="b522fef06-7d96-43a4-aca6-92185985619c" x="6.07" y="6.07" width="110.02" height="147.52" maskUnits="userSpaceOnUse">
                                                <path d="M80.13 89.12c11.58-8.83 18-21.42 18-35.49s-6.37-26.69-18-35.48c-10.25-7.79-24.07-12.08-39-12.08H6.07v129.51h30.38v-23.11l18.19 23.11h42.12L66.2 96.76a57.32 57.32 0 0 0 13.93-7.64zM56.91 66.55c-5 3.85-12.29 6.07-20.46 6.28v-38.4c8.17.21 15.41 2.43 20.46 6.25 4.48 3.42 6.75 7.79 6.75 13s-2.27 9.46-6.75 12.87z"
                                                filter="url(#ac72cf1c6-a6de-491d-986a-d0d5a99617bd)" fill="#000000"></path>
                                            </mask>
                                        </defs>
                                        <g mask="url(#b522fef06-7d96-43a4-aca6-92185985619c)">
                                            <path d="M59 42.49a21.77 21.77 0 0 0-2.08-1.81c-5-3.82-12.29-6-20.46-6.25v38.4l18 18V52.44c8.17.22 15.41 2.43 20.46 6.25A20.61 20.61 0 0 1 77 60.5zM36.45 112.47v23.11H6.07l18.01 18.01h30.38v-23.11l-18.01-18.01z" fill="#4ce0c3"></path>
                                            <path d="M116.09 71.49v-.63-1.87-.63-.62-.61l-.06-.64c0-.21 0-.42-.08-.63l-.09-.64c0-.22-.06-.44-.1-.66s-.07-.43-.11-.65-.07-.43-.12-.65a2 2 0 0 0 0-.26v-.06c0-.12 0-.24-.07-.36l-.15-.68c0-.22-.1-.45-.16-.68s-.11-.48-.17-.71-.13-.48-.19-.71l-.21-.74a1.87 1.87 0 0 1-.07-.22v-.06l-.15-.48c-.08-.26-.16-.51-.25-.76s-.19-.55-.29-.83l-.3-.83-.36-.89a1.11 1.11 0 0 0-.07-.16v-.08l-.29-.68c-.15-.34-.3-.68-.46-1l-.85-1.07-.49-1a.75.75 0 0 1-.07-.12 1.09 1.09 0 0 0-.08-.15c-.26-.48-.53-1-.82-1.43-.37-.63-.76-1.25-1.16-1.85l-.07-.09c-.54-.81-1.15-1.58-1.75-2.36-.29-.39-.56-.79-.87-1.16a42.28 42.28 0 0 0-2.93-3.23l-.06-.08-18-18q1.59 1.61 3 3.31c.31.37.57.77.87 1.16.6.77 1.21 1.55 1.75 2.36.77 1.14 1.48 2.32 2.13 3.52L93 33a40 40 0 0 1 1.78 3.74v.07c.54 1.29 1 2.61 1.42 4v.06c.4 1.34.74 2.71 1 4.1V45c.28 1.4.48 2.82.62 4.25.14 1.45.21 2.91.21 4.39a44.39 44.39 0 0 1-.3 5.19 43.7 43.7 0 0 1-.88 5 41.82 41.82 0 0 1-1.45 4.82 41.93 41.93 0 0 1-2 4.61 42.76 42.76 0 0 1-2.52 4.33.25.25 0 0 0 0 .07 43.59 43.59 0 0 1-3 4l-.16.2c-.93 1.1-1.94 2.14-3 3.16l-1 .93a50.476 50.476 0 0 1-3.66 3.12 57.32 57.32 0 0 1-13.86 7.69l30.56 38.82H54.64l18 18h42.13l-30.56-38.8a57.31 57.31 0 0 0 13.93-7.65c1.29-1 2.5-2 3.66-3.12.34-.3.65-.62 1-.93s.77-.72 1.13-1.09c.53-.55 1-1.11 1.53-1.68.11-.13.21-.26.32-.38l.16-.2c.2-.24.41-.48.6-.72s.6-.75.88-1.13.5-.67.74-1 .43-.61.63-.92a2.14 2.14 0 0 1 .13-.19.43.43 0 0 0 0-.07c.14-.2.28-.41.41-.62s.34-.53.5-.8l.47-.79.42-.75.39-.72.33-.65c.11-.22.22-.44.32-.66s.22-.45.32-.67l.3-.66.27-.63c.09-.21.18-.43.26-.64s.17-.41.25-.62.15-.4.22-.61v-.07l.18-.52.21-.61c.06-.19.13-.39.19-.59l.18-.59.18-.59c0-.19.1-.38.16-.57l.15-.58c0-.2.1-.39.14-.58s0-.13 0-.19c0-.11 0-.23.08-.35l.12-.57.12-.58c0-.19.08-.38.11-.57s.07-.39.1-.58.07-.38.1-.57.06-.39.08-.58.06-.39.08-.58.05-.39.08-.58v-.05l.06-.53.06-.58v-.6-1.79-.62-1.23z"
                                            fill="#fb0"></path>
                                        </g>
                                        <path d="M74.06 83.05c11.58-8.83 18-21.42 18-35.49s-6.37-26.69-18-35.49C63.81 4.29 50 0 35.1 0H0v129.51h30.38V106.4l18.19 23.11h42.12L60.13 90.69a57.32 57.32 0 0 0 13.93-7.64zM50.84 60.48c-5.06 3.85-12.29 6.07-20.46 6.28v-38.4c8.17.21 15.4 2.43 20.46 6.25 4.48 3.42 6.75 7.79 6.75 13s-2.27 9.46-6.75 12.87z"
                                        fill="#333"></path>
                                    </svg>
                                </svg>
                                <!---->
                            </g>
                        </g>
                    </g>
                    <g transform="translate(77.30190943994411, 0)">
                        <g class="name-imagesvg">
                            <g>
                                <rect fill="#333" fill-opacity="0" stroke-width="2" x="0" y="0" width="30.227893260807555" height="40" class="image-rect"></rect>
                                <svg x="0" y="0" width="30.227893260807555" height="40" filtersec="colorsb9733208815" class="image-svg-svg primary" style="overflow: visible;">
                                    <svg xmlns="http://www.w3.org/2000/svg" viewBox="0 0 116.06 153.59">
                                        <defs>
                                            <filter id="af687b8bd-d4e0-4ad2-961f-9828e96fc070" x="6.07" y="6.07" width="109.99" height="147.52" filterUnits="userSpaceOnUse" color-interpolation-filters="sRGB">
                                                <feFlood flood-color="#fff" result="bg"></feFlood>
                                                <feBlend in="SourceGraphic" in2="bg"></feBlend>
                                            </filter>
                                            <mask id="b446ceb86-3afd-4d4b-8fb5-c002b3240d98" x="6.07" y="6.07" width="109.99" height="147.52" maskUnits="userSpaceOnUse">
                                                <g filter="url(#af687b8bd-d4e0-4ad2-961f-9828e96fc070)">
                                                    <path d="M80.1 18.15c11.58 8.79 18 21.41 18 35.48s-6.37 26.66-18 35.49C69.86 96.9 56 101.19 41.15 101.19h-4.73v34.39H6.07V6.07h35.08c14.85 0 28.73 4.29 38.95 12.08zm-23.22 48.4c4.48-3.41 6.78-7.76 6.78-12.92s-2.3-9.53-6.78-13c-5.05-3.82-12.29-6-20.46-6.25v38.4c8.17-.21 15.41-2.43 20.46-6.28"
                                                    fill="#000000"></path>
                                                    <path d="M80.1 18.15c11.58 8.79 18 21.41 18 35.48s-6.37 26.66-18 35.49C69.86 96.9 56 101.19 41.15 101.19h-4.73v34.39H6.07V6.07h35.08c14.85 0 28.73 4.29 38.95 12.08zm-23.22 48.4c4.48-3.41 6.78-7.76 6.78-12.92s-2.3-9.53-6.78-13c-5.05-3.82-12.29-6-20.46-6.25v38.4c8.17-.21 15.41-2.43 20.46-6.28"
                                                    fill="#000000"></path>
                                                </g>
                                            </mask>
                                        </defs>
                                        <title>资源 42</title>
                                        <g mask="url(#b446ceb86-3afd-4d4b-8fb5-c002b3240d98)">
                                            <path d="M77 60.51l-18-18a20.82 20.82 0 0 0-2.09-1.82c-5.05-3.82-12.29-6-20.46-6.25v38.4l18 18v-38.4c8.17.22 15.41 2.43 20.46 6.25A22.14 22.14 0 0 1 77 60.51z" fill="#fb0"></path>
                                            <path d="M116.06 71.49v-.63-.62-.62-.63-.63-.62-.49a.49.49 0 0 1 0-.12c0-.21 0-.43-.07-.64s0-.42-.08-.63l-.09-.64c0-.22-.06-.44-.1-.66s-.07-.43-.1-.65l-.12-.65-.06-.26v-.06c0-.12 0-.24-.07-.36s-.09-.45-.14-.68-.11-.45-.16-.68l-.18-.71c-.06-.24-.13-.48-.19-.71l-.21-.74-.07-.22v-.06l-.15-.48-.24-.76-.29-.83c-.1-.28-.21-.55-.31-.83s-.23-.59-.36-.89l-.06-.16v-.07c-.09-.23-.19-.46-.29-.69s-.3-.68-.46-1-.33-.71-.51-1.06-.34-.65-.51-1l-.06-.12-.09-.15c-.26-.48-.53-1-.81-1.43-.38-.63-.77-1.25-1.17-1.85l-.07-.09c-.53-.81-1.14-1.57-1.74-2.35-.29-.39-.56-.79-.87-1.17q-1.41-1.71-3-3.3l-18-18q1.59 1.61 3 3.31c.31.37.58.77.87 1.16.6.77 1.21 1.55 1.75 2.36.77 1.14 1.48 2.32 2.13 3.52a.67.67 0 0 1 .06.12 40 40 0 0 1 1.78 3.74v.07c.54 1.29 1 2.61 1.42 4v.06a40.25 40.25 0 0 1 1 4.1.11.11 0 0 1 0 .05c.28 1.4.49 2.82.63 4.25.14 1.45.21 2.91.21 4.39a44.39 44.39 0 0 1-.3 5.19 43.68 43.68 0 0 1-.87 5 43.85 43.85 0 0 1-1.44 4.82 40.1 40.1 0 0 1-2 4.61 42.76 42.76 0 0 1-2.52 4.33v.07a44.68 44.68 0 0 1-3 4c-.05.06-.1.13-.16.19-.92 1.09-1.93 2.13-3 3.15-.32.32-.64.63-1 .94-1.16 1.08-2.36 2.13-3.66 3.12-10.47 7.8-24.33 12.09-39.18 12.09h-4.73v34.39H6.07l18 18h30.36V119.2h4.73c14.89 0 28.71-4.29 39-12.07 1.3-1 2.5-2 3.67-3.12.33-.3.65-.62 1-.93s.77-.72 1.12-1.09q.8-.83 1.53-1.68l.32-.39.17-.19.59-.72c.3-.37.6-.75.89-1.13l.73-1c.22-.31.43-.61.63-.92a2.14 2.14 0 0 0 .13-.19.43.43 0 0 0 0-.07c.14-.2.28-.41.41-.62s.34-.53.5-.8l.47-.79.42-.75.39-.72.33-.65.33-.66c.1-.23.21-.45.31-.67l.3-.66.27-.63c.09-.21.18-.43.26-.64s.17-.41.25-.62l.23-.61v-.07l.18-.52c.08-.21.14-.41.21-.61s.13-.39.19-.59.13-.39.18-.59l.18-.59c.05-.19.11-.38.16-.57l.15-.58.15-.58v-.19c0-.11 0-.23.08-.35s.09-.38.13-.57.08-.39.11-.58.08-.38.11-.57.07-.39.11-.58l.09-.57.09-.58c0-.19 0-.39.08-.58s0-.39.07-.58v-.05l.06-.53.06-.58c0-.2 0-.4.05-.6s0-.39 0-.59v-1.2-.62-1.23z"
                                            fill="#ff5e5e"></path>
                                        </g>
                                        <path d="M74 12.07C63.81 4.29 50 0 35.08 0H0v129.51h30.35V95.12h4.73c14.88 0 28.71-4.29 39-12.07 11.58-8.83 18-21.42 18-35.49S85.61 20.87 74 12.07zM50.81 60.48c-5.05 3.85-12.29 6.07-20.46 6.28v-38.4c8.17.21 15.41 2.43 20.46 6.25 4.48 3.42 6.78 7.79 6.78 13s-2.3 9.46-6.78 12.87z"
                                        fill="#333"></path>
                                    </svg>
                                </svg>
                                <!---->
                            </g>
                        </g>
                    </g>
                    <g transform="translate(107.52980270075167, 0)">
                        <g class="name-imagesvg">
                            <g>
                                <rect fill="#333" fill-opacity="0" stroke-width="2" x="0" y="0" width="35.775841404820326" height="40" class="image-rect"></rect>
                                <svg x="0" y="0" width="35.775841404820326" height="40" filtersec="colorsb8953743894" class="image-svg-svg primary" style="overflow: visible;">
                                    <svg xmlns="http://www.w3.org/2000/svg" viewBox="0 0 139.66 156.16">
                                        <defs>
                                            <filter id="aa36da32e-0a0b-4196-b4f0-d3d9700bcd67" x="6.07" y="6.07" width="133.59" height="150.09" filterUnits="userSpaceOnUse" color-interpolation-filters="sRGB">
                                                <feFlood flood-color="#fff" result="bg"></feFlood>
                                                <feBlend in="SourceGraphic" in2="bg"></feBlend>
                                            </filter>
                                            <mask id="b68f5c456-c475-4565-b2b7-1fbe91ac18ec" x="6.07" y="6.07" width="133.59" height="150.09" maskUnits="userSpaceOnUse">
                                                <path d="M106.93 26.78C102 20.47 88.62 6.07 63.88 6.07s-38.19 14.4-43.09 20.71C11.29 39 6.07 55.13 6.07 72.1s5.22 33.08 14.72 45.34c4.89 6.31 18.31 20.71 43.08 20.71s38.17-14.4 43.06-20.71c9.5-12.26 14.72-28.38 14.72-45.34s-5.22-33.1-14.72-45.32zm-43.06 82.47c-16.52 0-22.07-18.69-22.07-37.15s5.55-37.16 22.07-37.16S85.92 53.66 85.92 72.1s-5.55 37.15-22.05 37.15z"
                                                filter="url(#aa36da32e-0a0b-4196-b4f0-d3d9700bcd67)" fill="#000000"></path>
                                            </mask>
                                        </defs>
                                        <g mask="url(#b68f5c456-c475-4565-b2b7-1fbe91ac18ec)">
                                            <path d="M76.53 40.08a17 17 0 0 0-7.18-4.36 15.43 15.43 0 0 0-1.72-.42 19.58 19.58 0 0 0-3.76-.36 19 19 0 0 0-2.65.2l-.6.08a18.25 18.25 0 0 0-2.4.56l-.18.06a16.28 16.28 0 0 0-2 .84l-.5.24a18.74 18.74 0 0 0-2 1.19l-.26.21a18.06 18.06 0 0 0-1.59 1.33l-.39.36-.27.26c-.28.28-.55.57-.81.88s-.32.37-.48.57a.86.86 0 0 0-.07.1l-.34.44-.41.57c-.12.16-.23.33-.34.49l-.34.51-.12.19v.06c-.06.09-.12.18-.17.27s-.2.33-.29.5-.19.32-.28.49l-.27.49c-.09.17-.18.34-.26.51s-.07.13-.1.19v.05c-.05.09-.09.18-.13.27s-.17.34-.25.52l-.23.52c-.08.18-.15.35-.23.53l-.22.54-.12.29a.08.08 0 0 1 0 .05c0 .07 0 .15-.08.22l-.21.56-.21.57c-.07.2-.13.4-.2.59l-.2.62-.09.3v.06c0 .09-.06.18-.08.26s-.13.42-.19.63l-.18.66-.18.69c-.06.23-.12.46-.17.7a.19.19 0 0 0 0 .08v.05c-.05.19-.09.38-.14.57s-.11.5-.16.76-.11.51-.16.77l-.15.77V58.51c0 .16-.06.32-.08.47s-.1.57-.14.86-.09.57-.13.86-.09.6-.12.9a.59.59 0 0 0 0 .13v.1l-.09.71c0 .31-.07.63-.1.94s-.07.67-.1 1 0 .4-.05.6v.43c0 .34 0 .69-.07 1l-.06 1.12v9a.57.57 0 0 1 0 .13v.28c0 .37.05.75.08 1.12s0 .74.08 1.1.07.73.1 1.09.07.65.11 1c0 .34.08.69.13 1s.09.66.13 1l.15 1c.05.32.1.64.16 1 0 .15 0 .31.08.46s0 .07 0 .1 0 .24.07.36c.05.3.11.6.17.9s.13.6.2.89.13.58.2.86.13.57.21.84l.09.37v.09c0 .13.06.25.1.38s.15.54.23.81.16.54.25.8.17.53.25.79.19.53.28.79.09.26.14.38v.08l.12.32.3.77c.11.27.23.54.35.8s.23.53.35.79.26.55.4.81l.07.15a.16.16 0 0 1 0 .07l.36.68c.16.3.33.59.5.87.25.43.51.85.79 1.25.06.1.14.19.21.29l.3.4a21.8 21.8 0 0 0 2.16 2.59l18 18a21.69 21.69 0 0 1-2.35-2.5l-.3-.41a28.42 28.42 0 0 1-1.83-3.13.25.25 0 0 0 0-.07 37.67 37.67 0 0 1-1.59-3.64v-.07c-.47-1.27-.89-2.59-1.25-4v-.09c-.36-1.37-.67-2.77-.94-4.21a.3.3 0 0 0 0-.1c-.26-1.46-.48-2.94-.65-4.45-.17-1.51-.3-3-.38-4.57a.57.57 0 0 0 0-.13c-.08-1.53-.12-3.08-.12-4.62 0-1.14 0-2.27.07-3.4v-.14c0-1.1.11-2.2.2-3.29v-.13c.09-1.1.2-2.19.34-3.26v-.09c.14-1.09.3-2.17.49-3.23v-.08c.19-1.06.4-2.11.65-3.13.25-1 .52-2 .82-3v-.06q.45-1.47 1-2.85v-.06c.37-.92.76-1.81 1.18-2.66v-.06c.43-.85.88-1.66 1.37-2.44v-.07c.49-.77 1-1.5 1.55-2.19v-.06A18.85 18.85 0 0 1 69.3 58l.38-.36a16.84 16.84 0 0 1 1.6-1.33l.25-.2a17.26 17.26 0 0 1 2-1.2l.5-.24a16 16 0 0 1 2-.83l.18-.07a16.77 16.77 0 0 1 2.4-.55 6 6 0 0 1 .61-.09 18.89 18.89 0 0 1 2.67-.13 19.57 19.57 0 0 1 3.75.35 16.17 16.17 0 0 1 1.73.42 17.11 17.11 0 0 1 7.18 4.36z"
                                            fill="#4ce0c3"></path>
                                            <path d="M139.66 89.84v-1.11-1.11-1.12c0-.37 0-.75-.05-1.12s-.05-.75-.08-1.13v-.41a.34.34 0 0 0 0-.1v-.61c0-.38-.07-.76-.11-1.14l-.12-1.14c0-.39-.09-.77-.14-1.15s-.1-.78-.16-1.16-.09-.6-.14-.9v-.26a49.022 49.022 0 0 0-.41-2.37L138 73.8c-.08-.4-.17-.81-.26-1.21s-.15-.67-.23-1v-.06a1 1 0 0 0 0-.17c-.1-.41-.2-.83-.31-1.24s-.22-.86-.34-1.28-.24-.86-.37-1.29-.27-.89-.41-1.33c0-.15-.1-.3-.14-.45a.88.88 0 0 1 0-.15c-.09-.25-.17-.51-.25-.76l-.48-1.37-.64-1.49c-.19-.5-.39-1-.59-1.49l-.18-.4-.07-.18c-.14-.32-.27-.65-.41-1-.24-.56-.5-1.11-.76-1.66s-.56-1.2-.86-1.78c-.12-.24-.25-.47-.37-.7l-.18-.36c-.16-.3-.31-.6-.47-.89-.41-.75-.83-1.49-1.27-2.23-.28-.46-.58-.92-.87-1.38-.14-.23-.28-.46-.43-.69l-.41-.66q-1.31-2-2.75-3.83a55.72 55.72 0 0 0-4.5-5.11l-18-18a53.3 53.3 0 0 1 4.51 5.11q1.66 2.16 3.16 4.49l.43.69q1.38 2.19 2.6 4.5l.19.35c.86 1.67 1.66 3.37 2.4 5.12 0 .06 0 .12.07.17q1.13 2.69 2 5.49v.15c.61 1.88 1.16 3.81 1.62 5.76v.06q.69 3 1.17 6v.07c.31 2 .55 4.05.71 6.11v.1q.24 3.11.24 6.26 0 3.18-.24 6.3-.24 3.12-.72 6.17c-.31 2-.71 4-1.17 6v.06q-.7 3-1.62 5.8v.09c-.62 1.89-1.31 3.75-2.06 5.56v.06q-1.14 2.73-2.49 5.32a.41.41 0 0 1-.05.09c-.9 1.73-1.87 3.42-2.91 5q-1.57 2.46-3.35 4.75c-.21.28-.47.59-.72.9s-.47.57-.72.86l-.52.62c-.43.49-.9 1-1.4 1.54l-.25.27-.27.28q-.59.6-1.23 1.23l-.55.52-1.15 1-.66.58-1.29 1.07-.67.54c-.6.47-1.24.94-1.9 1.41l-.23.17c-.74.52-1.51 1-2.32 1.54-.23.15-.49.29-.73.44-.59.36-1.18.71-1.8 1.05l-1 .5c-.6.32-1.21.62-1.84.92l-1 .47c-.72.33-1.47.63-2.22.93l-.79.32c-1 .39-2.1.75-3.21 1.09-.24.07-.5.13-.75.21q-1.31.38-2.67.69l-1.23.27c-.81.16-1.63.32-2.47.45-.45.08-.9.15-1.36.21-.88.12-1.78.21-2.7.3L68 138c-1.35.09-2.73.15-4.16.15a59.74 59.74 0 0 1-10.14-.85 52.51 52.51 0 0 1-16.14-5.56q-2.25-1.22-4.2-2.54c-1.31-.87-2.53-1.77-3.65-2.67s-2.15-1.8-3.1-2.68c-.47-.44-.92-.87-1.34-1.3l18 18c.42.43.87.86 1.35 1.3.94.88 2 1.78 3.09 2.68s2.34 1.8 3.65 2.67 2.7 1.73 4.2 2.54a52.6 52.6 0 0 0 16.14 5.56 59.77 59.77 0 0 0 10.15.85c1.42 0 2.8-.06 4.15-.15l1.27-.11q1.38-.12 2.7-.3c.46-.06.91-.13 1.36-.21.84-.13 1.66-.28 2.47-.45l1.23-.26c.91-.22 1.8-.45 2.67-.7l.76-.21c1.1-.34 2.17-.7 3.2-1.09l.78-.31c.76-.3 1.51-.61 2.23-.94.35-.15.67-.31 1-.47.63-.3 1.24-.6 1.84-.92l1-.5q.93-.51 1.8-1c.25-.15.5-.29.73-.44.81-.5 1.59-1 2.33-1.54l.21-.15c.67-.48 1.3-1 1.92-1.43l.66-.53c.44-.37.88-.72 1.3-1.08l.65-.58c.4-.35.79-.71 1.16-1.06l.54-.51c.44-.42.85-.84 1.24-1.24l.26-.26.21-.24c.5-.53 1-1 1.39-1.53l.17-.18c.13-.16.23-.29.36-.43.25-.3.49-.59.71-.87a2.41 2.41 0 0 0 .21-.24l.52-.66.57-.74c.36-.48.71-1 1.06-1.45s.63-.9.93-1.36.53-.8.79-1.2l.78-1.25.71-1.2.66-1.17c.21-.38.42-.77.62-1.16l.12-.22v-.09l.42-.81.55-1.11.51-1.09c.17-.36.33-.72.49-1.09s.31-.71.46-1.06l.06-.15v-.07c.12-.28.24-.57.35-.85s.28-.7.41-1 .27-.7.4-1.06.25-.69.37-1l.36-1c.06-.17.11-.35.17-.52v-.09c0-.14.09-.29.14-.43.11-.34.21-.69.32-1l.3-1c.1-.34.19-.68.29-1l.27-1c.09-.35.17-.69.25-1a1.6 1.6 0 0 0 .05-.21v-.06l.18-.76c.07-.35.15-.69.22-1s.15-.69.21-1 .14-.69.2-1 .13-.69.19-1 .11-.69.17-1v-.08c.05-.32.1-.64.14-1l.15-1.05c0-.35.09-.7.13-1s.08-.71.11-1.06.07-.7.11-1.06 0-.66.08-1v-.08c0-.35.06-.71.08-1.07l.06-1.07c0-.36 0-.73.05-1.09v-1.09V90.78z"
                                            fill="#37db5a"></path>
                                        </g>
                                        <path d="M100.86 20.71C96 14.4 82.55 0 57.8 0S19.61 14.4 14.72 20.71C5.22 33 0 49.06 0 66s5.22 33.08 14.72 45.34c4.89 6.31 18.31 20.71 43.08 20.71s38.17-14.4 43.06-20.71C110.36 99.11 115.58 83 115.58 66s-5.22-33-14.72-45.29zM57.8 103.18c-16.52 0-22.07-18.69-22.07-37.15s5.55-37.16 22.07-37.16 22 18.72 22 37.16-5.5 37.15-22 37.15z"
                                        fill="#333"></path>
                                    </svg>
                                </svg>
                                <!---->
                            </g>
                        </g>
                    </g>
                    <g transform="translate(143.30564410557201, 0)">
                        <g class="name-imagesvg">
                            <g>
                                <rect fill="#333" fill-opacity="0" stroke-width="2" x="0" y="0" width="42.26316886479733" height="40" class="image-rect"></rect>
                                <svg x="0" y="0" width="42.26316886479733" height="40" filtersec="colorsb8605256579" class="image-svg-svg primary" style="overflow: visible;">
                                    <svg xmlns="http://www.w3.org/2000/svg" viewBox="0 0 162.28 153.59">
                                        <defs>
                                            <filter id="a87340970-7099-496c-812e-ae2d47762d2d" x="6.07" y="6.07" width="156.21" height="147.52" filterUnits="userSpaceOnUse" color-interpolation-filters="sRGB">
                                                <feFlood flood-color="#fff" result="bg"></feFlood>
                                                <feBlend in="SourceGraphic" in2="bg"></feBlend>
                                            </filter>
                                            <mask id="b74f9b91f-1e12-4e44-bc28-8183b80fd445" x="6.07" y="6.07" width="156.21" height="147.52" maskUnits="userSpaceOnUse">
                                                <path filter="url(#a87340970-7099-496c-812e-ae2d47762d2d)" d="M113.29 6.07l-11.31 54.74L90.64 6.07H59.67L48.36 60.81 37.02 6.07H6.07l26.8 129.51h30.95l11.34-54.74 11.33 54.74h30.95L144.27 6.07h-30.98z" fill="#000000"></path>
                                            </mask>
                                        </defs>
                                        <g mask="url(#b74f9b91f-1e12-4e44-bc28-8183b80fd445)">
                                            <path fill="#ff5e5e" d="M119.99 78.83l-11.33-54.75L90.64 6.07l11.34 54.74 18.01 18.02z"></path>
                                            <path fill="#4ce0c3" d="M66.37 78.83L55.03 24.08 37.02 6.07l11.34 54.74 18.01 18.02z"></path>
                                            <path fill="#ff5e5e" d="M75.16 80.84l-11.34 54.74H32.87l18.01 18.01h30.95l11.34-54.74-18.01-18.01z"></path>
                                            <path fill="#4ce0c3" d="M144.27 6.07l-26.83 129.51H86.49l18.01 18.01h30.95l26.83-129.51-18.01-18.01z"></path>
                                        </g>
                                        <path fill="#333" d="M107.22 0L95.91 54.74 84.58 0H53.6L42.29 54.74 30.95 0H0l26.8 129.51h30.95l11.33-54.74 11.34 54.74h30.95L138.2 0h-30.98z"></path>
                                    </svg>
                                </svg>
                                <!---->
                            </g>
                        </g>
                    </g>
                    <g transform="translate(185.56881297036935, 0)">
                        <g class="name-imagesvg">
                            <g>
                                <rect fill="#333" fill-opacity="0" stroke-width="2" x="0" y="0" width="26.29858864890717" height="40" class="image-rect"></rect>
                                <svg x="0" y="0" width="26.29858864890717" height="40" filtersec="colorsb3573247562" class="image-svg-svg primary" style="overflow: visible;">
                                    <svg xmlns="http://www.w3.org/2000/svg" viewBox="0 0 100.98 153.59">
                                        <defs>
                                            <filter id="a33602c1e-6a2e-4842-bb2d-01d421e399a4" x="6.07" y="6.07" width="94.91" height="147.52" filterUnits="userSpaceOnUse" color-interpolation-filters="sRGB">
                                                <feFlood flood-color="#fff" result="bg"></feFlood>
                                                <feBlend in="SourceGraphic" in2="bg"></feBlend>
                                            </filter>
                                            <mask id="b675be1f9-247f-44fc-bad7-ff1a9048ea46" x="6.07" y="6.07" width="94.91" height="147.52" maskUnits="userSpaceOnUse">
                                                <path filter="url(#a33602c1e-6a2e-4842-bb2d-01d421e399a4)" d="M82.97 34.4V6.07H6.07v129.51h76.9v-28.33H36.42V84.99h46.55V56.66H36.42V34.4h46.55z" fill="#000000"></path>
                                            </mask>
                                        </defs>
                                        <title>资源 31</title>
                                        <g mask="url(#b675be1f9-247f-44fc-bad7-ff1a9048ea46)">
                                            <path fill="#ff5e5e" d="M82.97 6.07V34.4H36.42v22.26l18.01 18.01V52.41h46.55V24.08L82.97 6.07z"></path>
                                            <path fill="#bc47ff" d="M82.97 56.66v28.33H36.42v22.26l18.01 18.02V103h46.55V74.67L82.97 56.66z"></path>
                                            <path fill="#ff5e5e" d="M82.97 107.25v28.33H6.07l18.01 18.01h76.9v-28.32l-18.01-18.02z"></path>
                                        </g>
                                        <path fill="#333" d="M76.9 28.33V0H0v129.51h76.9v-28.33H30.35V78.92H76.9V50.59H30.35V28.33H76.9z"></path>
                                    </svg>
                                </svg>
                                <!---->
                            </g>
                        </g>
                    </g>
                    <g transform="translate(211.8674016192765, 0)">
                        <g class="name-imagesvg">
                            <g>
                                <rect fill="#333" fill-opacity="0" stroke-width="2" x="0" y="0" width="30.23373894286662" height="40" class="image-rect"></rect>
                                <svg x="0" y="0" width="30.23373894286662" height="40" filtersec="colorsb7626559248" class="image-svg-svg primary" style="overflow: visible;">
                                    <svg xmlns="http://www.w3.org/2000/svg" viewBox="0 0 116.09 153.59">
                                        <defs>
                                            <filter id="ac72cf1c6-a6de-491d-986a-d0d5a99617bd" x="6.07" y="6.07" width="110.02" height="147.52" filterUnits="userSpaceOnUse" color-interpolation-filters="sRGB">
                                                <feFlood flood-color="#fff" result="bg"></feFlood>
                                                <feBlend in="SourceGraphic" in2="bg"></feBlend>
                                            </filter>
                                            <mask id="b522fef06-7d96-43a4-aca6-92185985619c" x="6.07" y="6.07" width="110.02" height="147.52" maskUnits="userSpaceOnUse">
                                                <path d="M80.13 89.12c11.58-8.83 18-21.42 18-35.49s-6.37-26.69-18-35.48c-10.25-7.79-24.07-12.08-39-12.08H6.07v129.51h30.38v-23.11l18.19 23.11h42.12L66.2 96.76a57.32 57.32 0 0 0 13.93-7.64zM56.91 66.55c-5 3.85-12.29 6.07-20.46 6.28v-38.4c8.17.21 15.41 2.43 20.46 6.25 4.48 3.42 6.75 7.79 6.75 13s-2.27 9.46-6.75 12.87z"
                                                filter="url(#ac72cf1c6-a6de-491d-986a-d0d5a99617bd)" fill="#000000"></path>
                                            </mask>
                                        </defs>
                                        <title>资源 43</title>
                                        <g mask="url(#b522fef06-7d96-43a4-aca6-92185985619c)">
                                            <path d="M59 42.49a21.77 21.77 0 0 0-2.08-1.81c-5-3.82-12.29-6-20.46-6.25v38.4l18 18V52.44c8.17.22 15.41 2.43 20.46 6.25A20.61 20.61 0 0 1 77 60.5zM36.45 112.47v23.11H6.07l18.01 18.01h30.38v-23.11l-18.01-18.01z" fill="#4ce0c3"></path>
                                            <path d="M116.09 71.49v-.63-1.87-.63-.62-.61l-.06-.64c0-.21 0-.42-.08-.63l-.09-.64c0-.22-.06-.44-.1-.66s-.07-.43-.11-.65-.07-.43-.12-.65a2 2 0 0 0 0-.26v-.06c0-.12 0-.24-.07-.36l-.15-.68c0-.22-.1-.45-.16-.68s-.11-.48-.17-.71-.13-.48-.19-.71l-.21-.74a1.87 1.87 0 0 1-.07-.22v-.06l-.15-.48c-.08-.26-.16-.51-.25-.76s-.19-.55-.29-.83l-.3-.83-.36-.89a1.11 1.11 0 0 0-.07-.16v-.08l-.29-.68c-.15-.34-.3-.68-.46-1l-.85-1.07-.49-1a.75.75 0 0 1-.07-.12 1.09 1.09 0 0 0-.08-.15c-.26-.48-.53-1-.82-1.43-.37-.63-.76-1.25-1.16-1.85l-.07-.09c-.54-.81-1.15-1.58-1.75-2.36-.29-.39-.56-.79-.87-1.16a42.28 42.28 0 0 0-2.93-3.23l-.06-.08-18-18q1.59 1.61 3 3.31c.31.37.57.77.87 1.16.6.77 1.21 1.55 1.75 2.36.77 1.14 1.48 2.32 2.13 3.52L93 33a40 40 0 0 1 1.78 3.74v.07c.54 1.29 1 2.61 1.42 4v.06c.4 1.34.74 2.71 1 4.1V45c.28 1.4.48 2.82.62 4.25.14 1.45.21 2.91.21 4.39a44.39 44.39 0 0 1-.3 5.19 43.7 43.7 0 0 1-.88 5 41.82 41.82 0 0 1-1.45 4.82 41.93 41.93 0 0 1-2 4.61 42.76 42.76 0 0 1-2.52 4.33.25.25 0 0 0 0 .07 43.59 43.59 0 0 1-3 4l-.16.2c-.93 1.1-1.94 2.14-3 3.16l-1 .93a50.476 50.476 0 0 1-3.66 3.12 57.32 57.32 0 0 1-13.86 7.69l30.56 38.82H54.64l18 18h42.13l-30.56-38.8a57.31 57.31 0 0 0 13.93-7.65c1.29-1 2.5-2 3.66-3.12.34-.3.65-.62 1-.93s.77-.72 1.13-1.09c.53-.55 1-1.11 1.53-1.68.11-.13.21-.26.32-.38l.16-.2c.2-.24.41-.48.6-.72s.6-.75.88-1.13.5-.67.74-1 .43-.61.63-.92a2.14 2.14 0 0 1 .13-.19.43.43 0 0 0 0-.07c.14-.2.28-.41.41-.62s.34-.53.5-.8l.47-.79.42-.75.39-.72.33-.65c.11-.22.22-.44.32-.66s.22-.45.32-.67l.3-.66.27-.63c.09-.21.18-.43.26-.64s.17-.41.25-.62.15-.4.22-.61v-.07l.18-.52.21-.61c.06-.19.13-.39.19-.59l.18-.59.18-.59c0-.19.1-.38.16-.57l.15-.58c0-.2.1-.39.14-.58s0-.13 0-.19c0-.11 0-.23.08-.35l.12-.57.12-.58c0-.19.08-.38.11-.57s.07-.39.1-.58.07-.38.1-.57.06-.39.08-.58.06-.39.08-.58.05-.39.08-.58v-.05l.06-.53.06-.58v-.6-1.79-.62-1.23z"
                                            fill="#fb0"></path>
                                        </g>
                                        <path d="M74.06 83.05c11.58-8.83 18-21.42 18-35.49s-6.37-26.69-18-35.49C63.81 4.29 50 0 35.1 0H0v129.51h30.38V106.4l18.19 23.11h42.12L60.13 90.69a57.32 57.32 0 0 0 13.93-7.64zM50.84 60.48c-5.06 3.85-12.29 6.07-20.46 6.28v-38.4c8.17.21 15.4 2.43 20.46 6.25 4.48 3.42 6.75 7.79 6.75 13s-2.27 9.46-6.75 12.87z"
                                        fill="#333"></path>
                                    </svg>
                                </svg>
                                <!---->
                            </g>
                        </g>
                    </g>
                </g>
            </g>
        </g>
        <!---->
    </g>
    <defs v-gra="od"></defs>
</svg>