<svg data-v-0dd9719b="" version="1.0" xmlns="http://www.w3.org/2000/svg" xmlns:xlink="http://www.w3.org/1999/xlink" width="216" height="72" preserveAspectRatio="xMidYMid meet" color-interpolation-filters="sRGB"
style="margin: auto;">
    <g data-v-0dd9719b="" class="iconmbgsvg">
        <g fill="#333333" hollow-target="text">
            <g mask="url(#20920587-344e-49eb-b520-8e4470c39f64)">
                <g>
                    <rect fill="#333333" fill-opacity="0" stroke-width="2" x="0" y="0" width="102.5" height="71.50780307099852" class="image-rect"></rect>
                    <svg x="0" y="0" width="102.5" height="71.50780307099852" filtersec="colorsb2711676367" class="image-svg-svg primary" style="overflow: visible;">
                        <svg xmlns="http://www.w3.org/2000/svg" viewBox="-0.00145721435546875 0.0017375946044921875 1490.7723388671875 1040.02099609375">
                            <g>
                                <path d="M413.94 1037.16C170.07 1029 104 1011.66 59.15 943.88c-18.14-27.39-38.5-88.67-45-135.42C-8.6 644.41-3 302.32 24.35 184.42 49.13 77.64 107.4 25.33 213.69 14.44 318.1 3.73 590.29-2.1 855 .7c285.83 3 420.39 9.13 469.08 21.31 95.24 23.82 141.44 94 157.55 239.2 3 27.45 6.79 123.3 8.32 213 6.16 362.07-21.08 477.25-124.89 528.11-39.2 19.2-64.84 23.62-175.63 30.23-120.33 7.18-611.37 10.11-775.53 4.63z"
                                fill="#333333"></path>
                            </g>
                        </svg>
                    </svg>
                    <!---->
                </g>
            </g>
            <g transform="translate(13.46999740600586,18.013099670410156)">
                <g data-gra="path-name" fill-rule="" class="tp-name" transform="translate(0,0)">
                    <g transform="scale(1)">
                        <g>
                            <path d="M32.17-3.46Q32.45-2.88 32.45-2.29L32.45-2.29Q32.45-1.26 31.61-0.54 30.78 0.18 29.7 0.18L29.7 0.18Q28.98 0.18 28.35-0.2 27.72-0.58 27.36-1.4L27.36-1.4 24.66-7.42 8.82-7.42 6.12-1.4Q5.76-0.58 5.13-0.2 4.5 0.18 3.73 0.18L3.73 0.18Q2.7 0.18 1.84-0.54 0.99-1.26 0.99-2.29L0.99-2.29Q0.99-2.88 1.26-3.46L1.26-3.46 13.68-30.15Q14.08-31.05 14.92-31.52 15.75-31.99 16.7-31.99L16.7-31.99Q17.64-31.99 18.47-31.52 19.3-31.05 19.71-30.15L19.71-30.15 32.17-3.46ZM16.74-25.29L10.8-11.92 22.68-11.92 16.74-25.29ZM42.11 0.27Q40.89 0.27 40.1-0.43 39.31-1.13 39.31-2.43L39.31-2.43 39.31-19.8Q39.31-21.11 40.1-21.78 40.89-22.45 42.11-22.45L42.11-22.45Q43.32-22.45 44.13-21.78 44.94-21.11 44.94-19.8L44.94-19.8 44.94-2.43Q44.94-1.13 44.13-0.43 43.32 0.27 42.11 0.27L42.11 0.27ZM42.11-26.46Q40.58-26.46 39.67-27.29 38.77-28.13 38.77-29.47L38.77-29.47Q38.77-30.82 39.67-31.63 40.58-32.45 42.11-32.45L42.11-32.45Q43.59-32.45 44.51-31.63 45.44-30.82 45.44-29.47L45.44-29.47Q45.44-28.13 44.53-27.29 43.63-26.46 42.11-26.46L42.11-26.46ZM66.03-22.45Q67.2-22.54 67.88-21.96 68.55-21.38 68.55-20.2L68.55-20.2Q68.55-18.99 67.97-18.4 67.38-17.82 65.85-17.64L65.85-17.64 64.5-17.5Q61.84-17.23 60.61-15.71 59.37-14.17 59.37-11.88L59.37-11.88 59.37-2.43Q59.37-1.13 58.56-0.43 57.75 0.27 56.53 0.27L56.53 0.27Q55.32 0.27 54.53-0.43 53.74-1.13 53.74-2.43L53.74-2.43 53.74-19.84Q53.74-21.11 54.53-21.78 55.32-22.45 56.49-22.45L56.49-22.45Q57.66-22.45 58.38-21.8 59.1-21.15 59.1-19.93L59.1-19.93 59.1-18.13Q59.95-20.11 61.64-21.2 63.33-22.27 65.4-22.41L65.4-22.41 66.03-22.45Z"
                            transform="translate(-0.9900000095367432, 32.45000076293945)"></path>
                        </g>
                        <!---->
                        <!---->
                        <!---->
                        <!---->
                        <!---->
                        <!---->
                        <!---->
                    </g>
                </g>
                <g data-gra="path-slogan" fill-rule="" class="tp-slogan" fill="#333333" transform="translate(85.19839859008789,2.720001220703125)">
                    <!---->
                    <!---->
                    <g transform="scale(1, 1)">
                        <g transform="scale(3.360000000000002)">
                            <path d="M1.68 0.07Q1.33 0.07 1.12-0.14Q0.91-0.35 0.91-0.71L0.91-0.71L0.91-7.73Q0.91-8.08 1.11-8.27Q1.31-8.46 1.66-8.46L1.66-8.46L4.61-8.46Q5.96-8.46 6.72-7.78Q7.48-7.10 7.48-5.88L7.48-5.88Q7.48-4.66 6.72-3.97Q5.96-3.29 4.61-3.29L4.61-3.29L2.46-3.29L2.46-0.71Q2.46-0.35 2.25-0.14Q2.04 0.07 1.68 0.07L1.68 0.07ZM4.42-4.48Q6.01-4.48 6.01-5.87L6.01-5.87Q6.01-7.26 4.42-7.26L4.42-7.26L2.46-7.26L2.46-4.48L4.42-4.48ZM11.16 0.10Q10.26 0.10 9.58-0.28Q8.90-0.65 8.53-1.34Q8.16-2.04 8.16-2.96L8.16-2.96Q8.16-3.89 8.53-4.58Q8.90-5.27 9.58-5.64Q10.26-6.01 11.16-6.01L11.16-6.01Q12.06-6.01 12.74-5.64Q13.42-5.27 13.78-4.58Q14.15-3.89 14.15-2.96L14.15-2.96Q14.15-2.04 13.78-1.34Q13.42-0.65 12.74-0.28Q12.06 0.10 11.16 0.10L11.16 0.10ZM11.15-1.07Q11.88-1.07 12.26-1.55Q12.65-2.03 12.65-2.96L12.65-2.96Q12.65-3.89 12.26-4.37Q11.88-4.86 11.16-4.86L11.16-4.86Q10.44-4.86 10.05-4.37Q9.66-3.89 9.66-2.96L9.66-2.96Q9.66-2.03 10.04-1.55Q10.43-1.07 11.15-1.07L11.15-1.07ZM23.22-5.54Q23.30-5.76 23.47-5.87Q23.63-5.98 23.82-5.98L23.82-5.98Q24.10-5.98 24.32-5.79Q24.54-5.60 24.54-5.33L24.54-5.33Q24.54-5.17 24.48-5.05L24.48-5.05L22.50-0.41Q22.40-0.18 22.21-0.06Q22.01 0.06 21.77 0.06L21.77 0.06Q21.54 0.06 21.34-0.06Q21.14-0.18 21.05-0.41L21.05-0.41L19.62-3.84L18.24-0.41Q18.14-0.18 17.95-0.06Q17.75 0.06 17.51 0.06L17.51 0.06Q17.28 0.06 17.08-0.06Q16.87-0.18 16.78-0.41L16.78-0.41L14.81-5.05Q14.75-5.21 14.75-5.32L14.75-5.32Q14.75-5.59 14.99-5.79Q15.23-5.99 15.52-5.99L15.52-5.99Q15.72-5.99 15.89-5.88Q16.06-5.77 16.14-5.56L16.14-5.56L17.56-1.90L19.01-5.52Q19.10-5.75 19.28-5.86Q19.46-5.98 19.68-5.98L19.68-5.98Q19.90-5.98 20.08-5.86Q20.26-5.75 20.35-5.52L20.35-5.52L21.82-1.88L23.22-5.54ZM30.11-1.61Q30.31-1.61 30.44-1.45Q30.56-1.30 30.56-1.03L30.56-1.03Q30.56-0.66 30.12-0.41L30.12-0.41Q29.71-0.18 29.20-0.04Q28.68 0.10 28.21 0.10L28.21 0.10Q26.80 0.10 25.97-0.72Q25.14-1.54 25.14-2.95L25.14-2.95Q25.14-3.85 25.50-4.55Q25.86-5.24 26.51-5.63Q27.17-6.01 28.00-6.01L28.00-6.01Q28.79-6.01 29.38-5.66Q29.96-5.32 30.29-4.68Q30.61-4.04 30.61-3.18L30.61-3.18Q30.61-2.66 30.16-2.66L30.16-2.66L26.62-2.66Q26.69-1.84 27.08-1.45Q27.48-1.06 28.24-1.06L28.24-1.06Q28.62-1.06 28.91-1.15Q29.21-1.25 29.58-1.42L29.58-1.42Q29.94-1.61 30.11-1.61L30.11-1.61ZM28.03-4.96Q27.42-4.96 27.05-4.57Q26.69-4.19 26.62-3.47L26.62-3.47L29.33-3.47Q29.30-4.20 28.97-4.58Q28.63-4.96 28.03-4.96L28.03-4.96ZM35.11-5.99Q35.42-6.01 35.60-5.86Q35.78-5.70 35.78-5.39L35.78-5.39Q35.78-5.06 35.63-4.91Q35.47-4.75 35.06-4.70L35.06-4.70L34.70-4.67Q34.00-4.60 33.67-4.19Q33.34-3.78 33.34-3.17L33.34-3.17L33.34-0.65Q33.34-0.30 33.12-0.11Q32.90 0.07 32.58 0.07L32.58 0.07Q32.26 0.07 32.05-0.11Q31.84-0.30 31.84-0.65L31.84-0.65L31.84-5.29Q31.84-5.63 32.05-5.81Q32.26-5.99 32.57-5.99L32.57-5.99Q32.88-5.99 33.07-5.81Q33.26-5.64 33.26-5.32L33.26-5.32L33.26-4.84Q33.49-5.36 33.94-5.65Q34.39-5.94 34.94-5.98L34.94-5.98L35.11-5.99Z"
                            transform="translate(-0.912, 8.46)"></path>
                        </g>
                    </g>
                </g>
            </g>
        </g>
    </g>
    <defs v-gra="od"></defs>
    <mask id="20920587-344e-49eb-b520-8e4470c39f64">
        <g fill="white">
            <g>
                <rect fill-opacity="1" stroke-width="2" x="0" y="0" width="102.5" height="71.50780307099852" class="image-rect"></rect>
                <svg x="0" y="0" width="102.5" height="71.50780307099852" filtersec="colorsb2711676367" class="image-svg-svg primary" style="overflow: visible;">
                    <svg xmlns="http://www.w3.org/2000/svg" viewBox="-0.00145721435546875 0.0017375946044921875 1490.7723388671875 1040.02099609375">
                        <g>
                            <path d="M413.94 1037.16C170.07 1029 104 1011.66 59.15 943.88c-18.14-27.39-38.5-88.67-45-135.42C-8.6 644.41-3 302.32 24.35 184.42 49.13 77.64 107.4 25.33 213.69 14.44 318.1 3.73 590.29-2.1 855 .7c285.83 3 420.39 9.13 469.08 21.31 95.24 23.82 141.44 94 157.55 239.2 3 27.45 6.79 123.3 8.32 213 6.16 362.07-21.08 477.25-124.89 528.11-39.2 19.2-64.84 23.62-175.63 30.23-120.33 7.18-611.37 10.11-775.53 4.63z"></path>
                        </g>
                    </svg>
                </svg>
            </g>
        </g>
        <g transform="translate(13.46999740600586,18.013099670410156)" fill="black" stroke="black" stroke-width="6" stroke-linejoin="round">
            <g data-gra="path-name" fill-rule="" class="tp-name" transform="translate(0,0)">
                <g transform="scale(1)">
                    <g>
                        <path d="M32.17-3.46Q32.45-2.88 32.45-2.29L32.45-2.29Q32.45-1.26 31.61-0.54 30.78 0.18 29.7 0.18L29.7 0.18Q28.98 0.18 28.35-0.2 27.72-0.58 27.36-1.4L27.36-1.4 24.66-7.42 8.82-7.42 6.12-1.4Q5.76-0.58 5.13-0.2 4.5 0.18 3.73 0.18L3.73 0.18Q2.7 0.18 1.84-0.54 0.99-1.26 0.99-2.29L0.99-2.29Q0.99-2.88 1.26-3.46L1.26-3.46 13.68-30.15Q14.08-31.05 14.92-31.52 15.75-31.99 16.7-31.99L16.7-31.99Q17.64-31.99 18.47-31.52 19.3-31.05 19.71-30.15L19.71-30.15 32.17-3.46ZM16.74-25.29L10.8-11.92 22.68-11.92 16.74-25.29ZM42.11 0.27Q40.89 0.27 40.1-0.43 39.31-1.13 39.31-2.43L39.31-2.43 39.31-19.8Q39.31-21.11 40.1-21.78 40.89-22.45 42.11-22.45L42.11-22.45Q43.32-22.45 44.13-21.78 44.94-21.11 44.94-19.8L44.94-19.8 44.94-2.43Q44.94-1.13 44.13-0.43 43.32 0.27 42.11 0.27L42.11 0.27ZM42.11-26.46Q40.58-26.46 39.67-27.29 38.77-28.13 38.77-29.47L38.77-29.47Q38.77-30.82 39.67-31.63 40.58-32.45 42.11-32.45L42.11-32.45Q43.59-32.45 44.51-31.63 45.44-30.82 45.44-29.47L45.44-29.47Q45.44-28.13 44.53-27.29 43.63-26.46 42.11-26.46L42.11-26.46ZM66.03-22.45Q67.2-22.54 67.88-21.96 68.55-21.38 68.55-20.2L68.55-20.2Q68.55-18.99 67.97-18.4 67.38-17.82 65.85-17.64L65.85-17.64 64.5-17.5Q61.84-17.23 60.61-15.71 59.37-14.17 59.37-11.88L59.37-11.88 59.37-2.43Q59.37-1.13 58.56-0.43 57.75 0.27 56.53 0.27L56.53 0.27Q55.32 0.27 54.53-0.43 53.74-1.13 53.74-2.43L53.74-2.43 53.74-19.84Q53.74-21.11 54.53-21.78 55.32-22.45 56.49-22.45L56.49-22.45Q57.66-22.45 58.38-21.8 59.1-21.15 59.1-19.93L59.1-19.93 59.1-18.13Q59.95-20.11 61.64-21.2 63.33-22.27 65.4-22.41L65.4-22.41 66.03-22.45Z"
                        transform="translate(-0.9900000095367432, 32.45000076293945)"></path>
                    </g>
                </g>
            </g>
            <g data-gra="path-slogan" fill-rule="" class="tp-slogan" transform="translate(85.19839859008789,2.720001220703125)" fill="white">
                <g transform="scale(1, 1)">
                    <g transform="scale(3.360000000000002)">
                        <path d="M1.68 0.07Q1.33 0.07 1.12-0.14Q0.91-0.35 0.91-0.71L0.91-0.71L0.91-7.73Q0.91-8.08 1.11-8.27Q1.31-8.46 1.66-8.46L1.66-8.46L4.61-8.46Q5.96-8.46 6.72-7.78Q7.48-7.10 7.48-5.88L7.48-5.88Q7.48-4.66 6.72-3.97Q5.96-3.29 4.61-3.29L4.61-3.29L2.46-3.29L2.46-0.71Q2.46-0.35 2.25-0.14Q2.04 0.07 1.68 0.07L1.68 0.07ZM4.42-4.48Q6.01-4.48 6.01-5.87L6.01-5.87Q6.01-7.26 4.42-7.26L4.42-7.26L2.46-7.26L2.46-4.48L4.42-4.48ZM11.16 0.10Q10.26 0.10 9.58-0.28Q8.90-0.65 8.53-1.34Q8.16-2.04 8.16-2.96L8.16-2.96Q8.16-3.89 8.53-4.58Q8.90-5.27 9.58-5.64Q10.26-6.01 11.16-6.01L11.16-6.01Q12.06-6.01 12.74-5.64Q13.42-5.27 13.78-4.58Q14.15-3.89 14.15-2.96L14.15-2.96Q14.15-2.04 13.78-1.34Q13.42-0.65 12.74-0.28Q12.06 0.10 11.16 0.10L11.16 0.10ZM11.15-1.07Q11.88-1.07 12.26-1.55Q12.65-2.03 12.65-2.96L12.65-2.96Q12.65-3.89 12.26-4.37Q11.88-4.86 11.16-4.86L11.16-4.86Q10.44-4.86 10.05-4.37Q9.66-3.89 9.66-2.96L9.66-2.96Q9.66-2.03 10.04-1.55Q10.43-1.07 11.15-1.07L11.15-1.07ZM23.22-5.54Q23.30-5.76 23.47-5.87Q23.63-5.98 23.82-5.98L23.82-5.98Q24.10-5.98 24.32-5.79Q24.54-5.60 24.54-5.33L24.54-5.33Q24.54-5.17 24.48-5.05L24.48-5.05L22.50-0.41Q22.40-0.18 22.21-0.06Q22.01 0.06 21.77 0.06L21.77 0.06Q21.54 0.06 21.34-0.06Q21.14-0.18 21.05-0.41L21.05-0.41L19.62-3.84L18.24-0.41Q18.14-0.18 17.95-0.06Q17.75 0.06 17.51 0.06L17.51 0.06Q17.28 0.06 17.08-0.06Q16.87-0.18 16.78-0.41L16.78-0.41L14.81-5.05Q14.75-5.21 14.75-5.32L14.75-5.32Q14.75-5.59 14.99-5.79Q15.23-5.99 15.52-5.99L15.52-5.99Q15.72-5.99 15.89-5.88Q16.06-5.77 16.14-5.56L16.14-5.56L17.56-1.90L19.01-5.52Q19.10-5.75 19.28-5.86Q19.46-5.98 19.68-5.98L19.68-5.98Q19.90-5.98 20.08-5.86Q20.26-5.75 20.35-5.52L20.35-5.52L21.82-1.88L23.22-5.54ZM30.11-1.61Q30.31-1.61 30.44-1.45Q30.56-1.30 30.56-1.03L30.56-1.03Q30.56-0.66 30.12-0.41L30.12-0.41Q29.71-0.18 29.20-0.04Q28.68 0.10 28.21 0.10L28.21 0.10Q26.80 0.10 25.97-0.72Q25.14-1.54 25.14-2.95L25.14-2.95Q25.14-3.85 25.50-4.55Q25.86-5.24 26.51-5.63Q27.17-6.01 28.00-6.01L28.00-6.01Q28.79-6.01 29.38-5.66Q29.96-5.32 30.29-4.68Q30.61-4.04 30.61-3.18L30.61-3.18Q30.61-2.66 30.16-2.66L30.16-2.66L26.62-2.66Q26.69-1.84 27.08-1.45Q27.48-1.06 28.24-1.06L28.24-1.06Q28.62-1.06 28.91-1.15Q29.21-1.25 29.58-1.42L29.58-1.42Q29.94-1.61 30.11-1.61L30.11-1.61ZM28.03-4.96Q27.42-4.96 27.05-4.57Q26.69-4.19 26.62-3.47L26.62-3.47L29.33-3.47Q29.30-4.20 28.97-4.58Q28.63-4.96 28.03-4.96L28.03-4.96ZM35.11-5.99Q35.42-6.01 35.60-5.86Q35.78-5.70 35.78-5.39L35.78-5.39Q35.78-5.06 35.63-4.91Q35.47-4.75 35.06-4.70L35.06-4.70L34.70-4.67Q34.00-4.60 33.67-4.19Q33.34-3.78 33.34-3.17L33.34-3.17L33.34-0.65Q33.34-0.30 33.12-0.11Q32.90 0.07 32.58 0.07L32.58 0.07Q32.26 0.07 32.05-0.11Q31.84-0.30 31.84-0.65L31.84-0.65L31.84-5.29Q31.84-5.63 32.05-5.81Q32.26-5.99 32.57-5.99L32.57-5.99Q32.88-5.99 33.07-5.81Q33.26-5.64 33.26-5.32L33.26-5.32L33.26-4.84Q33.49-5.36 33.94-5.65Q34.39-5.94 34.94-5.98L34.94-5.98L35.11-5.99Z"
                        transform="translate(-0.912, 8.46)"></path>
                    </g>
                </g>
            </g>
        </g>
    </mask>
</svg>