<svg data-v-0dd9719b="" version="1.0" xmlns="http://www.w3.org/2000/svg" xmlns:xlink="http://www.w3.org/1999/xlink" width="282.39" height="47.06" 
style="margin: auto;">
    <g data-v-0dd9719b="" fill="#0084bf" class="iconblsvg-g iconsvg" >
        <g class="tp-name">
            <g data-gra="path-name" transform="translate(0, 3.672390852259639)">
                <g transform="scale(1)">
                    <path d="M28.01 0L38.57 0 25.96-34.58 12.56-34.58-0.15 0 10.22 0 12.66-7.28 25.61-7.28ZM15.3-15.25L18.89-26.06 19.49-26.06 23.02-15.25ZM45.8-29.7C50.18-29.7 50.93-30.15 50.93-34.53 50.93-38.87 50.18-39.22 45.8-39.22 41.46-39.22 40.66-38.87 40.66-34.53 40.66-30.15 41.46-29.7 45.8-29.7ZM41.06 0L50.53 0 50.53-26.91 41.06-26.91ZM72.96-27.41C69.77-27.41 67.33-26.51 65.73-22.23L65.73-26.91 56.26-26.91 56.26 0 65.73 0 65.73-14.05C66.13-17.79 69.42-18.99 72.56-18.99L73.31-18.99 73.5-27.41Z"
                    transform="translate(0.15000000596046448, 39.220001220703125)"></path>
                </g>
            </g>
            <g transform="translate(76.6500015258789, 0)">
                <g>
                    <g class="imagesvg">
                        <g>
                            <rect fill="#0084bf" fill-opacity="0" stroke-width="2" x="0" y="0" width="47.06312292358804" height="47.06312292358804" class="image-rect"></rect>
                            <svg x="0" y="0" width="47.06312292358804" height="47.06312292358804" filtersec="colorsb6726459228" class="image-svg-svg primary" style="overflow: visible;">
                                <svg xmlns="http://www.w3.org/2000/svg" viewBox="0 0 135.5500030517578 135.5500030517578">
                                    <g>
                                        <g>
                                            <path d="M6.86 104.21a6.12 6.12 0 0 1-4.32-10.43L23.6 72.72a7.63 7.63 0 0 0 0-10.77L3.3 41.65A6.12 6.12 0 0 1 12 33l20.24 20.29c37.24 3.55 37.75 26.76 0 28.07l-21.05 21.06a6.1 6.1 0 0 1-4.33 1.79z" fill="#f5952e"></path>
                                            <circle cx="9.7" cy="67.71" r="9.7" fill="#f5952e"></circle>
                                            <path d="M104.21 6.86a6.12 6.12 0 0 0-10.43-4.32L72.72 23.6a7.63 7.63 0 0 1-10.77 0L41.65 3.3A6.12 6.12 0 1 0 33 12l20.29 20.25c3.55 37.24 26.76 37.75 28.07 0l21.06-21.06a6.1 6.1 0 0 0 1.79-4.33z" fill="#add13b"></path>
                                            <circle cx="67.71" cy="9.7" r="9.7" fill="#add13b"></circle>
                                            <path d="M128.69 31.33A6.12 6.12 0 0 1 133 41.77l-21 21.06a7.63 7.63 0 0 0 0 10.77l20.25 20.3a6.12 6.12 0 1 1-8.65 8.65l-20.3-20.3c-37.24-3.55-37.75-26.76 0-28.07l21.06-21.06a6.1 6.1 0 0 1 4.33-1.79z" fill="#0084bf"></path>
                                            <circle cx="125.85" cy="67.84" r="9.7" fill="#0084bf"></circle>
                                            <path d="M31.33 128.69A6.12 6.12 0 0 0 41.77 133l21.06-21a7.63 7.63 0 0 1 10.77 0l20.3 20.25a6.12 6.12 0 0 0 8.65-8.65l-20.3-20.3c-3.55-37.24-26.76-37.75-28.07 0l-21.06 21.06a6.1 6.1 0 0 0-1.79 4.33z" fill="#e8555d"></path>
                                            <circle cx="67.84" cy="125.85" r="9.7" fill="#e8555d"></circle>
                                        </g>
                                    </g>
                                </svg>
                            </svg>
                            <!---->
                        </g>
                    </g>
                </g>
            </g>
            <g data-gra="path-name-1" fill="#0084bf" transform="translate(126.7131233215332, 3.672390852259639)">
                <g transform="scale(1)">
                    <path d="M3.29 0L13.21 0 13.21-9.42 16.74-9.42C27.11-9.42 31.05-12.56 31.05-22.28 31.05-31.2 27.66-34.58 16.74-34.58L3.29-34.58ZM13.21-17.29L13.21-26.96 15.3-26.96C19.34-26.96 20.93-25.86 20.93-22.03 20.93-18.39 19.44-17.29 15.3-17.29ZM48.39 0.5C56.96 0.5 62.14-2.39 62.14-13.46 62.14-24.52 56.96-27.41 48.39-27.41 39.82-27.41 34.63-24.52 34.63-13.46 34.63-2.39 39.82 0.5 48.39 0.5ZM48.39-6.38C45.2-6.38 44.2-7.97 44.2-13.46 44.2-18.94 45.2-20.63 48.39-20.63 51.58-20.63 52.57-18.94 52.57-13.46 52.57-7.97 51.58-6.38 48.39-6.38ZM71.76 0L83.67 0 86.36-15.55 86.66-15.55 89.45 0 101.31 0 108.64-26.91 98.52-26.91 95.38-9.87 95.08-9.87 91.94-26.91 81.43-26.91 78.14-9.87 77.84-9.87 74.75-26.91 64.49-26.91ZM137.19-15.2C137.19-23.42 134.6-27.41 125.03-27.41 116.11-27.41 110.93-24.52 110.93-13.46 110.93-2.39 116.11 0.5 124.58 0.5 129.92 0.5 134.2-0.5 135.85-1.64L135.85-8.62C134.25-7.67 130.12-6.68 126.48-6.68 123.04-6.68 120.9-7.62 120.35-9.97L136.89-10.96C137.04-11.36 137.19-13.01 137.19-15.2ZM120.3-16.4C120.5-19.73 121.89-20.48 125.08-20.48 128.07-20.48 128.82-19.09 128.82-17.04ZM158.42-27.41C155.23-27.41 152.79-26.51 151.2-22.23L151.2-26.91 141.73-26.91 141.73 0 151.2 0 151.2-14.05C151.59-17.79 154.88-18.99 158.02-18.99L158.77-18.99 158.97-27.41Z"
                    transform="translate(-3.2899999618530273, 39.220001220703125)"></path>
                </g>
            </g>
        </g>
        <!---->
    </g>
    <defs v-gra="od"></defs>
</svg>