<?xml version="1.0" standalone="no"?><!DOCTYPE svg PUBLIC "-//W3C//DTD SVG 1.1//EN" "http://www.w3.org/Graphics/SVG/1.1/DTD/svg11.dtd"><svg t="1703875614105" class="icon" viewBox="0 0 1024 1024" version="1.1" xmlns="http://www.w3.org/2000/svg" p-id="1719" xmlns:xlink="http://www.w3.org/1999/xlink" width="200" height="200"><path d="M675.57481 723.346349v-126.079853h-327.14962v126.079853L512 867.524182l163.57481-144.177833z" fill="#EFCDAC" p-id="1720"></path><path d="M919.336527 784.637278l-219.965745-50.791941c-3.199996-0.799999-6.298993-1.999998-9.197989-3.599996L512 832.130223 340.826199 725.246347c-4.598995 4.199995-10.097988 7.198992-16.196981 8.59899l-219.965745 50.791941c-32.095963 7.398991-54.791936 35.493959-54.791936 67.889921v136.577842c0 19.296978 15.897982 34.894959 35.593959 34.894959h853.169008c19.595977 0 35.593959-15.597982 35.593959-34.894959V852.526199c-0.1-32.394962-22.795974-60.48993-54.891936-67.889921z" fill="#A7D5FF" p-id="1721"></path><path d="M348.42519 597.266496v125.779854c205.967761 69.589919 327.04962-104.583878 327.04962-104.583879v-21.195975h-327.04962z" fill="#E0B594" p-id="1722"></path><path d="M277.336273 199.127959l15.697981 331.048615c1.499998 30.894964 17.29698 59.589931 43.19295 78.187909l74.588914 53.591938c18.996978 13.497984 41.692952 20.795976 64.989924 20.695976h72.187916c23.296973 0 45.992947-7.197992 64.989925-20.695976l74.588913-53.591938c25.89597-18.596978 41.693952-47.292945 43.19295-78.187909l15.697982-331.049615H277.336273z" fill="#FADEBD" p-id="1723"></path><path d="M456.609064 268.216878c71.687917 0 179.171792-17.29698 204.767762-69.089919H277.436273l15.597981 331.049615c1.499998 30.894964 17.19698 59.589931 42.892951 78.187909l74.088914 53.591938c18.796978 13.497984 41.392952 20.795976 64.489925 20.695976H510.300002c-35.793958 0-107.482875-69.08892-107.482875-155.37582V320.008818c0-17.29698 17.896979-51.79194 53.791937-51.79194z" fill="#EFCDAC" p-id="1724"></path><path d="M181.050385 903.31914L66.169518 797.035264a74.753913 74.753913 0 0 0-15.296982 45.292947v142.977834c0 20.196977 15.896982 36.493958 35.493959 36.493958h124.180855v-50.591942c0-25.69597-10.697988-50.291942-29.494965-67.889921z m661.89923 0l114.981867-106.283876a74.753913 74.753913 0 0 1 15.296982 45.292947v142.977834c0 20.196977-15.896982 36.493958-35.493959 36.493958H813.55365v-50.591942c0-25.89597 10.697988-50.591941 29.394965-67.889921z" fill="#92CFF4" p-id="1725"></path><path d="M561.791942 1023.9h-85.286901l10.698988-156.375818h63.989925l10.597988 156.375818z" fill="#5B5D6E" p-id="1726"></path><path d="M561.791942 824.830231h-85.286901v35.694959c0 11.697986 8.49999 21.196975 19.097978 21.196975h47.191945c10.598988 0 19.096978-9.498989 19.096978-21.196975v-35.693959z" fill="#515262" p-id="1727"></path><path d="M342.526197 687.252391l162.374811 147.476829s-45.492947 23.195973-101.583882 69.889919c-9.598989 8.097991-23.896972 6.797992-31.994963-2.699997-1.399998-1.599998-2.499997-3.399996-3.299996-5.299994l-76.287911-169.372803 24.095972-36.594958c5.399994-8.19899 16.297981-10.397988 24.495972-5.098994 0.799999 0.499999 1.499998 1.099999 2.199997 1.699998z m324.749623 0L504.901008 834.72922s45.492947 23.195973 101.583882 69.889919c9.598989 8.097991 23.896972 6.797992 31.995963-2.799997 1.299998-1.599998 2.499997-3.399996 3.299996-5.299994l76.286912-169.372803-24.095972-36.594957c-5.399994-8.19899-16.296981-10.397988-24.495972-5.098995-0.799999 0.599999-1.499998 1.199999-2.199997 1.799998z" fill="#92CFF4" p-id="1728"></path><path d="M618.683876 82.046095l16.196981 116.281865c73.888914 14.996983 84.486902 132.979845 85.9869 166.673806 0.3 6.099993 2.199997 11.997986 5.399994 17.19798l28.194967 44.492948s-9.598989-73.488915 34.49396-122.880857c0-0.1 15.197982-291.955661-170.272802-221.765742z" fill="#4F393E" p-id="1729"></path><path d="M773.959696 415.493707l-19.396978 80.287907c-2.299997 9.498989-10.498988 16.197981-19.996977 16.197981-10.398988 0-19.196978-7.999991-20.496976-18.697978l-9.898988-82.086905c-2.699997-21.996974 13.897984-41.393952 35.294959-41.393952 23.196973 0 40.093953 22.496974 34.49496 45.692947z" fill="#EFCDAC" p-id="1730"></path><path d="M292.634255 46.051136l26.395969 17.89698c-119.181861 87.786898-96.884887 238.263723-96.884887 238.263723 35.593959 35.593959 35.593959 124.379855 35.593958 124.379855l35.594959-35.593958s-13.797984-102.683881 53.390938-142.177835c62.389927-36.693957 116.881864-17.796979 172.5738-17.796979 149.176827 0 190.969778-56.091935 183.771786-124.380856C699.369782 71.347107 645.179845-2.340807 507.100006 0.05819c-55.591935 0.999999-160.275814 17.796979-214.466751 45.992946z" fill="#5A4146" p-id="1731"></path><path d="M283.335266 219.823935s-19.296978-72.987915 37.393956-148.676828c-121.280859 85.9869-98.583885 233.563729-98.583885 233.563729 36.293958 34.79496 36.293958 121.981858 36.293958 121.981858l36.293957-34.794959s-13.996984-100.683883 54.391937-139.378838c63.489926-35.893958 118.981862-17.39698 175.672796-17.39698 24.695971 0 46.192946-1.599998 65.389924-4.299995-116.981864 3.699996-185.870784-81.486905-306.852643-10.997987z" fill="#473237" p-id="1732"></path><path d="M250.040304 415.493707l19.396978 80.287907c2.299997 9.498989 10.498988 16.197981 19.996977 16.197981 10.398988 0 19.196978-7.999991 20.496976-18.697978l9.898988-82.086905c2.699997-21.996974-13.897984-41.393952-35.294959-41.393952-23.196973 0-40.093953 22.496974-34.49496 45.692947z" fill="#EFCDAC" p-id="1733"></path><path d="M743.463731 981.20705h-121.679859c-9.599989 0-17.39798 9.597989-17.397979 21.295975v21.296975h156.375818v-21.296975c0.1-11.697986-7.698991-21.295975-17.29798-21.295975z" fill="#92CFF4" p-id="1734"></path></svg>