<svg t="1692071299856" class="icon" viewBox="0 0 1170 1024" version="1.1" xmlns="http://www.w3.org/2000/svg" p-id="13213" width="200" height="200"><path d="M-0.117029 823.998171a582.846171 192.672914 0 1 0 1165.692343 0 582.846171 192.672914 0 1 0-1165.692343 0Z" fill="#F5F6FA" p-id="13214"></path><path d="M323.189029 257.653029h519.0656c7.855543 0 15.199086 3.964343 19.499885 10.561828L1010.205257 495.177143c2.486857 3.803429 3.818057 8.250514 3.818057 12.8v321.8432c0 12.9024-10.4448 23.361829-23.317943 23.361828h-815.981714c-12.873143 0-23.303314-10.459429-23.303314-23.361828V507.991771c0-4.534857 1.316571-8.996571 3.803428-12.8l148.465372-226.976914c4.3008-6.582857 11.644343-10.561829 19.499886-10.561828z" fill="#F5F6FA" p-id="13215"></path><path d="M163.079314 502.871771h257.696915c12.873143 0 23.317943 10.459429 23.317942 23.361829v29.447314c0 12.887771 10.430171 23.3472 23.303315 23.3472h230.648685c12.873143 0 23.303314-10.459429 23.303315-23.3472v-29.447314c0-12.9024 10.4448-23.361829 23.317943-23.361829h257.696914c6.436571 0 11.658971 5.237029 11.658971 11.6736v326.9632c0 6.4512-5.2224 11.688229-11.658971 11.688229H163.079314a11.6736 11.6736 0 0 1-11.658971-11.688229v-326.948571c0-6.4512 5.2224-11.688229 11.658971-11.688229z" fill="#FFFFFF" p-id="13216"></path></svg>