<svg width="90" height="70" viewBox="0 0 90 70" fill="none" xmlns="http://www.w3.org/2000/svg">
<path d="M77.2071 34.7917C77.2071 34.7917 72.0012 40.6194 72.1731 46.007H73.8537C73.8537 46.007 74.4634 39.5095 77.2071 34.7917ZM81.3813 27C80.2283 28.392 79.4896 30.3635 80.1775 32.128C80.6582 33.3432 82.0965 33.3507 81.9949 35.04C81.8972 35.884 81.5961 36.6943 81.1155 37.4064C80.2996 38.7806 79.2996 40.0455 78.1412 41.1687C78.6154 41.5245 78.9841 41.994 79.2104 42.5302C79.4368 43.0663 79.5129 43.6503 79.431 44.2237C79.2388 45.3806 78.6678 46.4483 77.8012 47.2711C77.5454 47.5714 77.2127 47.8022 76.8358 47.9408C76.4691 48.0197 76.0887 48.0197 75.7219 47.9408C73.9256 47.6464 72.1811 47.1107 70.5394 46.3494C69.5154 45.8791 68.468 45.2207 68.1202 44.2161C67.7293 43.0461 68.3586 42.6736 69.0504 42.3049L69.2262 42.2109C69.5933 42.0472 69.9108 41.796 70.1486 41.481C70.6528 40.6834 70.6684 39.5998 70.8482 38.7232C71.1101 37.4102 70.7231 35.0174 72.4311 34.502C73.0955 34.3026 73.8147 34.3477 74.4752 34.1257C75.9134 33.6856 76.5114 32.3876 77.086 31.0745L77.1915 30.8338C77.4726 30.0914 77.8679 29.3939 78.364 28.7645C79.1027 27.9669 80.8888 27.5643 81.3813 27Z" fill="url(#paint0_linear_305_1162)"/>
<path d="M90 60.8478C83.8723 51.6995 72.9843 41.0264 45 43.3135C10.0494 46.1457 2.13702 56.6548 0.440426 60.2227C0.166674 60.5648 0.0120958 60.9862 0 61.4234C0 66.1615 20.1485 70 45 70C69.8515 70 90 66.1577 90 61.4234C89.9973 61.2285 89.9624 61.0353 89.8966 60.8516L90 60.8478Z" fill="url(#paint1_linear_305_1162)"/>
<path d="M16.0095 24.549C16.465 22.9386 18.2488 18.0558 22.6318 21.0328C22.6318 21.0328 25.0816 13.2062 32.4542 19.3596C32.4542 19.3596 36.1979 17.0918 38.043 21.5757C38.043 21.5757 40.3398 22.5028 39.957 24.3643L16.3999 24.9996C16.3411 25.0022 16.2824 24.9916 16.2285 24.9687C16.1746 24.9458 16.1269 24.9112 16.0891 24.8676C16.0513 24.824 16.0245 24.7725 16.0107 24.7173C15.9969 24.662 15.9964 24.6044 16.0095 24.549Z" fill="url(#paint2_linear_305_1162)"/>
<path d="M51 4C51 4 52.181 0.918308 54.1558 2.09178C54.1558 2.09178 56.4144 -1.83167 60.5711 1.06811C60.5711 1.06811 62.5267 0.540229 63.5659 2.66959C63.5659 2.66959 64.5935 2.50909 65 3.21888L51 4Z" fill="url(#paint3_linear_305_1162)"/>
<path d="M20 51.3598C20 51.3598 38.7405 63.8068 63.0858 66L82 60.6102C82 60.6102 73.5967 51.2292 68.5246 49.4202C57.1529 45.3359 20 51.3598 20 51.3598Z" fill="url(#paint4_linear_305_1162)" fill-opacity="0.6"/>
<path d="M70 50.2886L46 57V26.1322L70 23V50.2886Z" fill="url(#paint5_linear_305_1162)"/>
<path d="M20 23.271L44.544 21L70 22.8168L46.3642 26L20 23.271Z" fill="#E6E6E6"/>
<path d="M45 21V31L20 23.271L45 21Z" fill="#CCCCCC"/>
<path d="M46 26.0889L50.131 38L74 31.3815L69.869 23L46 26.0889Z" fill="#F4F4F4"/>
<path d="M46 57L20 50.6521V23L46 25.7211V57Z" fill="url(#paint6_linear_305_1162)"/>
<path d="M19.7065 23L12 32.0931L40.105 38L46 25.7283L19.7065 23Z" fill="#F5F5F5"/>
<path d="M39 8C39.5523 8 40 7.55228 40 7C40 6.44771 39.5523 6 39 6C38.4477 6 38 6.44771 38 7C38 7.55228 38.4477 8 39 8Z" fill="white"/>
<path d="M45 8C45.5523 8 46 7.55228 46 7C46 6.44771 45.5523 6 45 6C44.4477 6 44 6.44771 44 7C44 7.55228 44.4477 8 45 8Z" fill="white"/>
<path d="M51 8C51.5523 8 52 7.55228 52 7C52 6.44771 51.5523 6 51 6C50.4477 6 50 6.44771 50 7C50 7.55228 50.4477 8 51 8Z" fill="white"/>
<path d="M40.0595 43.5436L24.7312 41.1158C24.3274 41.0519 23.9641 41.221 23.9199 41.4935C23.8757 41.7661 24.1672 42.0389 24.571 42.1029L39.8993 44.5307C40.3031 44.5946 40.6664 44.4255 40.7106 44.1529C40.7548 43.8804 40.4633 43.6075 40.0595 43.5436Z" fill="#E6E6E6" fill-opacity="0.8"/>
<path d="M40.0595 47.5436L24.7312 45.1158C24.3274 45.0519 23.9641 45.221 23.9199 45.4935C23.8757 45.7661 24.1672 46.0389 24.571 46.1029L39.8993 48.5307C40.3031 48.5946 40.6664 48.4255 40.7106 48.1529C40.7548 47.8804 40.4633 47.6075 40.0595 47.5436Z" fill="#E6E6E6" fill-opacity="0.8"/>
<path d="M52.2233 45.9336L67.2817 42.1791C67.6784 42.0802 67.9446 41.7831 67.8762 41.5156C67.8079 41.248 67.4308 41.1113 67.0341 41.2102L51.9758 44.9647C51.579 45.0636 51.3128 45.3607 51.3812 45.6282C51.4496 45.8958 51.8266 46.0325 52.2233 45.9336Z" fill="#EEEEEE" fill-opacity="0.6"/>
<path d="M52.2233 48.9336L67.2817 45.1791C67.6784 45.0802 67.9446 44.7831 67.8762 44.5156C67.8079 44.248 67.4308 44.1113 67.0341 44.2102L51.9758 47.9647C51.579 48.0636 51.3128 48.3607 51.3812 48.6282C51.4496 48.8958 51.8266 49.0325 52.2233 48.9336Z" fill="#EEEEEE" fill-opacity="0.6"/>
<defs>
<linearGradient id="paint0_linear_305_1162" x1="2588.28" y1="2663.97" x2="3089.9" y2="2663.97" gradientUnits="userSpaceOnUse">
<stop stop-color="#F2F6FA" stop-opacity="0"/>
<stop offset="0.7" stop-color="#E6E6E6" stop-opacity="0.5"/>
</linearGradient>
<linearGradient id="paint1_linear_305_1162" x1="45" y1="101.455" x2="45" y2="11.8774" gradientUnits="userSpaceOnUse">
<stop stop-color="#F9F9F9" stop-opacity="0"/>
<stop offset="1" stop-color="#DFDFDF" stop-opacity="0.7"/>
</linearGradient>
<linearGradient id="paint2_linear_305_1162" x1="1048.72" y1="683.56" x2="2554.48" y2="683.56" gradientUnits="userSpaceOnUse">
<stop stop-color="#F2F6FA" stop-opacity="0"/>
<stop offset="0.7" stop-color="#E6E6E6" stop-opacity="0.5"/>
</linearGradient>
<linearGradient id="paint3_linear_305_1162" x1="1966.2" y1="132.52" x2="2477.34" y2="132.52" gradientUnits="userSpaceOnUse">
<stop stop-color="#F2F6FA" stop-opacity="0"/>
<stop offset="0.7" stop-color="#E6E6E6" stop-opacity="0.5"/>
</linearGradient>
<linearGradient id="paint4_linear_305_1162" x1="53.8294" y1="71.733" x2="48.2716" y2="38.6322" gradientUnits="userSpaceOnUse">
<stop offset="0.2" stop-color="#DFDFDF" stop-opacity="0"/>
<stop offset="0.83" stop-color="#CCCCCC"/>
</linearGradient>
<linearGradient id="paint5_linear_305_1162" x1="58" y1="64.3498" x2="58" y2="15.9281" gradientUnits="userSpaceOnUse">
<stop stop-color="#CCCCCC"/>
<stop offset="0.98" stop-color="#F4F4F4"/>
</linearGradient>
<linearGradient id="paint6_linear_305_1162" x1="31.4477" y1="54.0468" x2="35.957" y2="14.1706" gradientUnits="userSpaceOnUse">
<stop offset="0.2" stop-color="#CCCCCC"/>
<stop offset="0.84" stop-color="#F4F4F4"/>
</linearGradient>
</defs>
</svg>
