<?xml version="1.0" standalone="no"?><!DOCTYPE svg PUBLIC "-//W3C//DTD SVG 1.1//EN" "http://www.w3.org/Graphics/SVG/1.1/DTD/svg11.dtd"><svg t="1689216980848" class="icon" viewBox="0 0 1024 1024" version="1.1" xmlns="http://www.w3.org/2000/svg" p-id="24675" width="1024" height="1024" xmlns:xlink="http://www.w3.org/1999/xlink"><path d="M84.2752 92.0064m236.032 0l372.2752 0q236.032 0 236.032 236.032l0 372.2752q0 236.032-236.032 236.032l-372.2752 0q-236.032 0-236.032-236.032l0-372.2752q0-236.032 236.032-236.032Z" fill="#46a0fc" p-id="24676" data-spm-anchor-id="a313x.7781069.0.i66" class=""></path><path d="M297.6256 326.0416A366.2848 366.2848 0 0 0 84.2752 394.24v306.0736a236.032 236.032 0 0 0 236.032 236.032h253.952a367.7696 367.7696 0 0 0-276.48-610.304z" fill="#7cbcfd" p-id="24677" data-spm-anchor-id="a313x.7781069.0.i67" class=""></path><path d="M273.8688 449.024h113.0496v320.512h-148.48V484.4544a35.4304 35.4304 0 0 1 35.4304-35.4304zM785.5616 769.536h-148.48V449.024h113.0496a35.4304 35.4304 0 0 1 35.4304 35.4304v285.0816z" fill="#a2d0fd" p-id="24678" data-spm-anchor-id="a313x.7781069.0.i68" class=""></path><path d="M796.928 728.3712h-128V387.4816h28.1088a14.6432 14.6432 0 0 0 14.6432-14.6432A193.3824 193.3824 0 0 0 518.2976 179.2h-14.5408a193.3824 193.3824 0 0 0-193.4336 193.6384 14.6432 14.6432 0 0 0 14.6432 14.6432H353.28v340.8896H227.072a29.696 29.696 0 1 0 0 59.392h569.856a29.696 29.696 0 0 0 0-59.392zM511.0272 377.3952A62.5664 62.5664 0 1 1 448.512 439.9104a62.5152 62.5152 0 0 1 62.5152-62.5152z m-68.864 212.736a19.3024 19.3024 0 0 1 19.3024-19.3024h101.0688a19.3024 19.3024 0 0 1 19.3024 19.3024v138.24H442.1632z" fill="#FFFFFF" p-id="24679"></path></svg>